#!OML:ASF H:\LiuWeirdWalks\Patient Classification 1\Patient 1\Session 1\male.ASF
:FULLY-SPECIFIED
:DEGREES
910
root 1.57455 18.1193 10.0716 3.62309 1.85297 3.99699
lowerback 10.819 0.648518 7.9024
upperback 0.956837 2.5931 13.4501
thorax -5.43272 1.29053 9.74858
lowerneck -23.2642 1.36102 11.4967
upperneck 26.3931 2.57241 -16.3227
head 13.1 0.117138 -8.0826
rclavicle 3.18055e-015 -1.46306e-013
rhumerus -12.8873 -2.56132 -47.3905
rradius 49.1593
rwrist -18.4784
rhand -19.3828 -2.20066
rfingers 7.12502
rthumb 6.93559 -32.067
lclavicle 3.18055e-015 -1.46306e-013
lhumerus -46.2976 -14.9648 104.22
lradius 45.5244
lwrist 1.6221
lhand -1.86022 -5.44231
lfingers 7.12502
lthumb 23.8075 23.1026
rfemur 3.90507 -2.14925 12.9976
rtibia 24.6302
rfoot -11.3578 -26.3306
rtoes -14.973
lfemur -17.7936 3.32123 -25.0079
ltibia 3.34607
lfoot 2.95678 9.16398
ltoes -8.56067
911
root 1.6277 18.1098 10.2145 3.37121 1.61758 4.10461
lowerback 10.9057 0.667921 7.80764
upperback 1.04928 2.60394 13.4347
thorax -5.3855 1.29696 9.78134
lowerneck -23.1828 1.39226 11.5333
upperneck 26.4321 2.61234 -16.3118
head 13.1065 0.14325 -8.07903
rclavicle 2.06736e-014 4.13472e-014
rhumerus -13.2934 -2.59205 -47.3257
rradius 48.8579
rwrist -18.3199
rhand -19.3929 -2.20564
rfingers 7.12502
rthumb 6.92593 -32.0723
lclavicle 2.06736e-014 4.13472e-014
lhumerus -46.1889 -15.1251 104.323
lradius 45.7287
lwrist 1.39535
lhand -1.61765 -5.46261
lfingers 7.12502
lthumb 24.0401 23.0518
rfemur 4.12756 -1.96831 12.6569
rtibia 25.5701
rfoot -11.0259 -26.2652
rtoes -15.4586
lfemur -18.0143 3.69656 -25.3205
ltibia 5.0504
lfoot 3.11843 8.81609
ltoes -8.3289
912
root 1.68364 18.1014 10.359 3.1188 1.34324 4.29791
lowerback 10.9881 0.696282 7.66667
upperback 1.14877 2.61724 13.393
thorax -5.32892 1.30501 9.80941
lowerneck -23.108 1.42869 11.5649
upperneck 26.468 2.66433 -16.3114
head 13.1156 0.172624 -8.07713
rclavicle -2.06736e-014 -5.725e-014
rhumerus -13.707 -2.6704 -47.2736
rradius 48.4939
rwrist -18.1345
rhand -19.4115 -2.22117
rfingers 7.12502
rthumb 6.90798 -32.0885
lclavicle -2.06736e-014 -5.725e-014
lhumerus -46.0481 -15.2757 104.412
lradius 45.9036
lwrist 1.21054
lhand -1.41964 -5.49896
lfingers 7.12502
lthumb 24.2299 22.9902
rfemur 4.22899 -1.82074 12.1868
rtibia 26.7144
rfoot -10.6004 -26.104
rtoes -15.9392
lfemur -17.9283 4.11391 -25.7123
ltibia 6.12075
lfoot 3.62011 8.4699
ltoes -8.4501
913
root 1.74166 18.0971 10.5046 2.88454 1.05228 4.58546
lowerback 11.0653 0.732211 7.46638
upperback 1.2416 2.6322 13.3283
thorax -5.27818 1.31483 9.84482
lowerneck -23.0316 1.46513 11.5863
upperneck 26.4831 2.72503 -16.3321
head 13.118 0.201941 -8.0791
rclavicle 1.66979e-014 9.54166e-014
rhumerus -14.1323 -2.80009 -47.2169
rradius 48.0566
rwrist -17.9127
rhand -19.4153 -2.2485
rfingers 7.12502
rthumb 6.90425 -32.1159
lclavicle 1.66979e-014 9.54166e-014
lhumerus -45.8782 -15.4054 104.493
lradius 46.0445
lwrist 1.06446
lhand -1.2916 -5.52413
lfingers 7.12502
lthumb 24.3527 22.9486
rfemur 4.16775 -1.72633 11.5796
rtibia 28.0957
rfoot -10.0702 -25.844
rtoes -16.407
lfemur -17.6773 4.54647 -26.1987
ltibia 6.84107
lfoot 4.18775 8.12312
ltoes -8.71041
914
root 1.80161 18.0959 10.6509 2.67734 0.76186 4.96588
lowerback 11.1281 0.772902 7.22028
upperback 1.31229 2.64757 13.236
thorax -5.24395 1.32548 9.87505
lowerneck -22.9711 1.48413 11.5682
upperneck 26.5405 2.77448 -16.341
head 13.1382 0.223432 -8.07494
rclavicle 9.54166e-015 4.45278e-014
rhumerus -14.5758 -3.00754 -47.1559
rradius 47.5141
rwrist -17.6094
rhand -19.3899 -2.21878
rfingers 7.12502
rthumb 6.92878 -32.0854
lclavicle 9.54166e-015 4.45278e-014
lhumerus -45.6993 -15.5174 104.562
lradius 46.1388
lwrist 0.909154
lhand -1.23524 -5.57418
lfingers 7.12502
lthumb 24.4067 22.8913
rfemur 3.90875 -1.72133 10.8266
rtibia 29.7561
rfoot -9.44192 -25.4646
rtoes -16.8289
lfemur -17.3539 4.97296 -26.7875
ltibia 7.41643
lfoot 4.60537 7.77745
ltoes -8.93948
915
root 1.86243 18.097 10.7962 2.51035 0.51347 5.4223
lowerback 11.1671 0.802513 6.92682
upperback 1.35274 2.64291 13.1274
thorax -5.228 1.32736 9.91838
lowerneck -22.8703 1.50912 11.5728
upperneck 26.5678 2.83844 -16.394
head 13.1416 0.249194 -8.08763
rclavicle 5.56597e-015 7.31528e-014
rhumerus -15.0453 -3.24898 -47.0866
rradius 46.9094
rwrist -17.2658
rhand -19.3709 -2.21806
rfingers 7.12502
rthumb 6.94713 -32.0841
lclavicle 5.56597e-015 7.31528e-014
lhumerus -45.5154 -15.5901 104.618
lradius 46.2013
lwrist 0.783045
lhand -1.25541 -5.62197
lfingers 7.12502
lthumb 24.3874 22.8461
rfemur 3.44989 -1.8275 9.95474
rtibia 31.6691
rfoot -8.679 -24.9832
rtoes -17.1354
lfemur -16.9569 5.3531 -27.4585
ltibia 7.82627
lfoot 4.8406 7.41983
ltoes -8.85754
